<?xml version="1.0" standalone="no"?>
<!DOCTYPE svg PUBLIC "-//W3C//DTD SVG 20010904//EN"
 "http://www.w3.org/TR/2001/REC-SVG-20010904/DTD/svg10.dtd">
<svg version="1.0" xmlns="http://www.w3.org/2000/svg"
 width="1011.000000pt" height="1011.000000pt" viewBox="0 0 1011.000000 1011.000000"
 preserveAspectRatio="xMidYMid meet">
<metadata>
Created by potrace 1.14, written by Peter Selinger 2001-2017
</metadata>
<g transform="translate(0.000000,1011.000000) scale(0.100000,-0.100000)"
fill="#000000" stroke="none">
<path d="M4498 10102 c-10 -2 -34 -55 -68 -150 -29 -81 -69 -194 -90 -252 -21
-58 -52 -143 -68 -190 -37 -103 -139 -389 -260 -725 -50 -137 -121 -335 -157
-440 -37 -104 -73 -195 -79 -201 -6 -6 -60 -28 -121 -49 -464 -161 -981 -466
-1355 -800 -88 -79 -311 -304 -370 -375 -30 -36 -63 -74 -73 -85 -10 -11 -37
-45 -60 -75 -23 -30 -44 -57 -47 -60 -21 -21 -159 -223 -246 -360 -23 -36
-152 -267 -154 -275 -1 -2 -22 -48 -47 -102 -113 -242 -231 -582 -278 -801
-27 -127 -47 -224 -50 -252 -3 -19 -7 -44 -9 -55 -2 -12 -7 -48 -11 -80 -4
-33 -9 -71 -11 -85 -12 -74 -19 -241 -19 -455 0 -262 10 -427 35 -575 5 -30
12 -75 15 -100 4 -25 13 -76 22 -115 8 -38 17 -81 19 -95 19 -98 128 -474 144
-495 4 -5 10 -23 14 -38 12 -51 136 -330 206 -464 58 -111 133 -242 189 -329
12 -18 4 -46 -68 -245 -45 -123 -86 -233 -91 -244 -8 -18 -143 -386 -282 -765
-27 -74 -55 -151 -63 -170 -54 -137 -215 -584 -210 -588 10 -10 1218 -7 1231
3 7 6 92 224 188 485 96 261 179 488 185 503 l11 29 63 -50 c104 -82 363 -255
427 -285 8 -4 31 -17 50 -28 78 -48 352 -179 465 -223 66 -26 129 -51 140 -57
63 -29 418 -130 540 -154 22 -5 45 -9 50 -11 25 -5 143 -26 170 -30 17 -2 41
-6 55 -8 14 -3 54 -8 90 -12 36 -3 72 -7 80 -9 116 -22 683 -22 822 0 13 2 50
6 83 10 33 3 67 8 75 10 8 2 38 6 65 10 28 3 95 15 150 26 55 11 111 22 125
25 14 2 32 7 40 10 8 3 26 8 40 10 14 3 64 16 111 29 452 127 878 331 1269
609 113 80 272 206 289 230 11 15 15 16 22 4 7 -12 59 -162 134 -383 14 -44
30 -89 35 -100 5 -11 27 -76 51 -145 116 -343 170 -495 178 -500 10 -6 1159
-5 1165 1 2 2 -16 65 -41 139 -24 74 -89 274 -144 445 -56 171 -114 348 -129
395 -15 47 -74 227 -130 400 -56 173 -129 398 -162 500 -33 102 -69 210 -79
242 l-20 56 32 54 c52 87 183 364 232 488 98 248 191 574 221 775 4 22 8 47
11 55 7 23 33 234 42 340 16 187 9 653 -13 795 -2 17 -6 46 -8 65 -12 98 -20
145 -42 258 -13 68 -26 127 -28 131 -2 3 -342 6 -755 6 l-751 0 -19 50 c-10
27 -92 255 -181 505 -89 250 -171 475 -181 500 l-20 45 41 -40 c23 -22 74 -79
113 -127 39 -49 73 -88 76 -88 7 0 62 49 199 177 56 53 112 105 124 115 12 10
50 45 83 76 182 171 323 302 350 326 113 103 116 107 103 124 -7 10 -58 69
-114 132 -353 401 -796 736 -1287 974 -76 36 -140 66 -143 66 -3 0 -25 9 -49
20 -24 11 -65 28 -91 37 l-47 18 -60 165 c-32 91 -81 228 -109 305 -27 77 -58
163 -68 190 -23 63 -50 137 -145 405 -43 118 -109 303 -147 410 -38 107 -92
258 -120 335 -27 77 -57 160 -66 185 l-17 45 -601 0 c-330 0 -607 -1 -616 -3z
m797 -2975 c17 -3 57 -8 90 -11 33 -4 87 -13 119 -19 l59 -12 184 -510 c100
-280 194 -541 207 -580 13 -38 84 -234 156 -435 73 -201 133 -374 134 -385 1
-19 -7 -20 -569 -20 l-570 0 -1 -563 -2 -562 22 -1 c11 0 360 -1 774 -1 529
-1 755 -4 761 -12 5 -6 27 -63 49 -126 22 -63 52 -146 66 -185 86 -239 111
-312 181 -505 42 -118 99 -278 126 -355 28 -77 54 -149 59 -160 25 -60 100
-282 100 -295 -1 -44 -323 -355 -510 -492 -384 -280 -859 -478 -1285 -534 -22
-3 -51 -7 -65 -10 -154 -26 -585 -26 -740 0 -14 3 -59 10 -100 16 -494 79
-980 302 -1377 632 -128 106 -253 228 -253 246 0 8 82 242 181 521 100 278
199 556 221 616 22 61 52 146 68 190 16 44 40 112 53 150 14 39 131 366 261
727 130 362 236 660 236 662 0 3 5 17 12 33 6 15 12 30 13 33 1 3 4 12 8 20 6
16 283 794 369 1035 27 77 64 181 83 230 94 253 218 603 222 628 3 16 12 27
22 27 41 1 166 13 171 17 5 5 423 -4 465 -10z m-2171 -822 c-36 -99 -78 -216
-94 -260 -81 -230 -134 -378 -320 -895 -111 -311 -224 -626 -251 -700 -26 -74
-68 -191 -92 -260 -25 -69 -77 -215 -117 -325 -39 -110 -73 -202 -76 -204 -7
-7 -12 3 -18 39 -3 19 -7 44 -10 55 -2 11 -7 49 -11 85 -4 36 -9 68 -11 71 -5
9 -18 248 -18 329 0 79 12 292 19 340 20 133 29 186 46 270 20 94 24 109 74
270 134 427 382 835 710 1163 82 82 225 210 230 205 2 -2 -25 -84 -61 -183z"/>
</g>
</svg>
